<?xml version="1.0" encoding="utf-8"?>
<!-- Generator: Adobe Illustrator 24.0.1, SVG Export Plug-In . SVG Version: 6.00 Build 0)  -->
<svg version="1.1" id="Layer_1" xmlns="http://www.w3.org/2000/svg" xmlns:xlink="http://www.w3.org/1999/xlink" x="0px" y="0px"
	 viewBox="0 0 1024 768" style="enable-background:new 0 0 1024 768;" xml:space="preserve">
<style type="text/css">
	.st0{fill:#FEFEFE;}
	.st1{fill:#E4108D;}
	.st2{fill:#E3108D;}
	.st3{fill:#DF118B;}
	.st4{fill:#AB0D72;}
	.st5{fill:#E3108E;}
	.st6{fill:#B70D77;}
	.st7{fill:#B31174;}
</style>
<path class="st0" d="M479.81,125.12C364.54,125.08,249.27,125.04,134,125c-44.64-0.01-89.28,0-133.93,0c0.17-0.25-0.4-0.83,0.4-0.81
	c1.07,0.03,2.13,0.01,3.2,0.01c338.88,0,677.77,0,1016.65,0.05c1.17,0,2.71-0.92,3.6,0.75c-169.49,0-338.97,0-508.46,0.01
	c-5.33,0-10.66,0.07-15.99,0.11c-4.64,2.35-9.6,0.76-14.4,1.13C483.28,126.4,481.34,126.5,479.81,125.12z"/>
<path class="st1" d="M479.81,125.12c6.56,0,13.11,0,19.67,0c8.55,1.18,17.14,2.01,25.57,3.96c28.02,6.47,52.28,19.73,71.7,40.91
	c10.59,11.54,22.33,21.44,34.95,30.61c13.85,10.06,25.96,22.15,35.37,36.51c15.89,24.27,24.87,50.73,23.55,80.1
	c-2.3,51.2-24.3,92.24-64.32,124c-11.06,8.78-22.73,16.62-34.68,24.13c-22.97,14.44-47.98,23.19-74.53,28
	c-1.54,0.28-3.09,0.63-5.37-0.34c6.72-2.44,12.87-4.61,18.98-6.9c12.25-4.57,24.2-9.93,35.17-16.99
	c28.11-18.09,53.13-39.47,70.28-68.77c11.03-18.85,17.52-39.27,20.64-60.79c1.75-12.1,2.94-24.25,1.66-36.52
	c-2.33-22.5-10.23-42.78-24.02-60.73c-2.39-3.11-3.71-7.04-7.3-9.62c-1.11,2.14-0.66,4.26-0.64,6.26
	c0.21,18.63-0.4,37.21-4.14,55.54c-1.7,8.32-3.2,16.69-5.65,24.84c-1.28,4.27-3.26,8.12-6.97,10.85c-3.12,3.57-6.88,6.55-9.69,10.4
	l0.03-0.02c-2.05,1.13-4.16,0.63-6.21,0.13c-4.36-1.06-8.67-1.08-12.98,0.19c-0.51,0.15-1.02,0.32-1.55,0.37
	c-1.2,0.12-2.67,0.37-3.22-0.88c-0.6-1.37,0.77-2.14,1.76-2.7c4.5-2.57,8.95-5.18,12.93-8.54c6.77-5.73,12.42-12.25,15.49-20.71
	c7.77-25.28,9.21-51.11,6.73-77.27c-0.78-8.2-1.59-16.41-4.41-24.25c-8.07-22.4-22.8-39.19-43.06-51.52
	c-27.78-16.9-57.84-23.91-90.19-21.4c-5.69,0.44-11.35,1.33-17.2,1.65c4.99-4.68,9.65-9.85,17.37-9.9
	C476.96,125.74,478.48,125.98,479.81,125.12z"/>
<path class="st2" d="M550.58,322.06c2.03,2.88,3.22,6.1,3.9,9.52c4.9,6.94,5.56,14.89,5.51,23.01c-0.78,7.91,1.99,15.52,1.75,23.48
	c-0.38,12.69-4.18,24.15-10.13,35.13c-1.9,3.51-4.38,6.63-6.43,10.03c-0.66,1.1-1.42,2.53-3.03,2.09c-1.51-0.41-1.61-1.98-1.9-3.25
	c-0.56-2.47,0.6-4.48,2.07-6.21c1.71-2,3-3.95,2.44-6.77c-0.26-1.28,0.15-2.77,0.7-3.88c2.76-5.58,0.96-11.76,2.59-17.61
	c1.26-4.5-0.06-9.67-1.44-14.42c-1.52-5.21-2.07-10.58-2.83-15.93c-0.6-4.24-0.07-8.8-2.29-12.79c-0.39-0.7-0.82-1.72-0.33-2.28
	c2.4-2.73,1.06-4.98-0.61-7.32c-0.54-0.75-0.79-1.74-0.71-2.67c0.37-4.77-2.22-8.57-4.03-12.62c-0.27-0.61-0.57-1.2-0.8-1.82
	c-1.53-4.24-1.01-4.97,3.72-5.15C544.65,313.3,547.37,317.99,550.58,322.06z"/>
<path class="st3" d="M539.22,313.36c-4.97,0.12-5.37,0.89-2.73,5.56c2.37,4.19,4.79,8.31,4.37,13.45c-0.18,2.13,1.37,3.65,2.82,5.07
	c1.08,1.06,1.74,2.68,0.18,3.31c-3.1,1.24-2.09,2.63-0.77,4.43c0.71,0.97,0.94,2.16,0.92,3.4c-0.11,7.34,1.81,14.45,2.5,21.71
	c0.18,1.89,1.13,3.72,1.69,5.57c1.6,5.3,0.63,10.27,0.11,15.56c-0.59,5.92-2.3,11.81-2.21,17.52c0.07,3.89-1.81,5.55-3.27,8.04
	c-0.47,0.8-1.03,1.55-1.49,2.35c-1.11,1.92-0.17,4.51,0.8,5.07c1.74,1.01,1.99-1.51,2.91-2.64c3.19-3.92,5.5-8.3,7.87-12.72
	c7.11-13.28,8.84-27.49,7.87-42.23c-0.03-0.53,0.11-1.3-0.18-1.54c-3.65-3.06-1.7-6.83-1.4-10.38c0.26-0.27,0.57-0.34,0.92-0.19
	c0.21,0.28,0.37,0.59,0.47,0.92c0.82,9.64,2.05,19.21,1.32,28.98c-0.95,12.65-6.09,23.53-12.67,33.95
	c-10.67,16.9-24.51,30.99-39.35,44.24c-6,5.36-12.09,10.53-18.68,15.13c-2.41-1.04-0.91-2.35-0.01-3.17
	c4.64-4.2,8.29-9.29,12.65-13.74c12.54-12.8,24.22-26.32,34.29-41.17c1.13-1.66,2.02-3.38,2.7-5.25c0.23-0.41,0.45-0.81,0.68-1.22
	c3.41-10.37,5.55-20.9,4.14-31.88c-0.64-6.55-1.78-13.04-2.72-19.56c-0.65-4.44-0.58-4.5-5.24-3.52c-2.54,0.74-4.94,1.85-7.42,2.77
	c-6.43,2.38-14.74,1.42-18.29-5.47c-0.95-1.84-2.73-3.23-3.67-5.15c-0.79-1.61-0.39-2.56,1.55-2.5c1.33,0.04,2.75,0,3.91,0.6
	c3.02,1.56,5.88,1.03,8.76-0.24c5.18-2.17,10.39-4.29,15.52-6.57c1.7-0.53,1.04-1.9,0.98-2.97c-0.28-5.1-1.13-10.12-2.52-15.05
	c-0.65-3.52-3.69-5.32-5.67-7.88c-0.78-1-2.47-1.88-1.84-3.22c0.71-1.52,2.73-1.22,3.95-0.81
	C535.01,312.62,537.61,310.93,539.22,313.36z"/>
<path class="st4" d="M523.13,349.16c-4.57,3.37-9.01,0.21-13.51-0.28c-0.25-0.03-0.51-0.05-1.64-0.15
	c4.5,4.89,6.13,11.42,13.55,12.77c4.15,0.75,7.56-0.52,11.15-1.81c1.61-0.58,3.03-1.69,4.85-1.72c0.38,0.31,0.4,0.64,0.06,0.99
	c-5.48,2.98-11.53,3.99-17.59,4.34c-1.67,0.1-4.01-1.26-5.51-2.96c-4.48-5.09-9-10.13-10.69-16.99c-1.16-4.71,0.67-8.92,2.19-13.11
	c1.5-4.12,3.7-7.97,6.56-11.32c4.24-4.97,8.78-8.8,16.29-8.01c7.51,0.79,15.03,0.57,19.94,7.7c0.75,1.08,1.82,1.98,1.78,3.45
	c-1.97-2.02-3.95-4.03-5.92-6.05c-1.5-1.54-3.16-2.73-5.44-2.65c-3.01-1.68-6.25-0.37-10-0.95c2.55,2.91,4.68,5.41,6.89,7.84
	c0.94,1.03,1.71,2.04,1.38,3.53c-2.13-0.04-2.56-2.92-4.76-2.84c-4.04,0.23-5.76,3.46-7.92,6.09c-3.85,4.68-6.55,10-8.08,15.83
	c-1.16,4.41-0.62,5,3.83,5.46C521.48,348.41,522.43,348.41,523.13,349.16z"/>
<path class="st5" d="M561.54,329.21c10.34-6.42,21.55-10.57,33.51-12.73c0.36-0.19,0.75-0.34,1.14-0.28c1,0.14,2.35-0.57,2.95,0.52
	c0.69,1.25-0.32,2.27-1.21,3.07c-3.37,3.02-6.38,6.4-9.58,9.59c-1.97,1.97-4.17,3.67-6.59,5.13c-3.29,1.97-6.34,4.13-8.63,7.49
	c-2.09,3.07-6.17,3.36-9.51,4.57c-0.41,0.1-0.82,0.12-1.24,0.09c-1.79-0.4-2.55-1.76-3.07-3.32c-0.5-1.51-0.53-3.22-1.24-4.58
	C555.71,334.2,557.49,331.34,561.54,329.21z"/>
<path class="st6" d="M599.1,341.41c-2.37-0.08-4.69-0.26-7.03-0.82c-8.47-2.04-15.92,1.71-23.49,4.5c-1.77,0.65-3.47,1.19-5.36,1.05
	c0.86-1.19,2.32-1.12,3.51-1.62c2.72-1.14,5.45-1.81,6.97-5.07c1.34-2.86,4.69-4.22,7.41-5.76c7.17-4.08,11.4-11.17,18.04-16.25
	c-1.55-1.26-2.96-0.55-4.11-0.96c0.09-0.09,0.19-0.26,0.28-0.25c5.67,0.22,9.01-2.8,10.96-7.78c-1.19,5.17-3.22,9.91-6.87,13.87
	c-6.59,7.14-14.06,13.11-22.91,17.82c8.02-2.32,15.78-0.81,23.55,0.47C599.75,340.86,599.43,341.13,599.1,341.41z"/>
<path class="st7" d="M563.23,346.16c-3.67,1.98-3.23,5.49-3.32,8.82c-0.23-0.05-0.47-0.08-0.7-0.1c0.06-8.09-1.86-15.78-4.72-23.28
	c3.2,1.7,4.39-2.52,7.06-2.38c-0.33,1.27-1.36,1.91-2.37,2.55c-0.69,0.44-1.67,1.06-1.4,1.75c1.61,4.06,1.15,8.85,4.32,12.34
	C562.31,346.09,562.84,346.06,563.23,346.16z"/>
<path class="st6" d="M600.05,340.61c2.16-4.46,5.87-7.49,9.69-10.4C607.13,334.25,603.66,337.49,600.05,340.61z"/>
<path class="st1" d="M596.9,213.57c-2.79-10.09-7.43-19.32-13.04-28.1c-6.46-10.11-15.61-16.47-27.05-19.85
	c-10.3-3.04-20.83-4.32-33.06-4.53c-24.71,1.12-50.37,5.17-74.91,14.94c-33.4,13.29-60.04,34.7-78.84,65.52
	c-9.12,14.95-13.38,31.24-12.94,48.64c0.29,11.47,1.6,22.76,8.16,32.83c3.12,4.78,2.54,10.15,0.56,15.37
	c-2.52,6.66-7.17,11.73-12.12,16.63c-7.65,7.58-15.33,15.14-22.74,22.96c-6.98,7.37-5.94,12.12,3.16,16.56
	c3.59,1.75,7.28,3.33,10.7,5.36c11.1,6.58,12.83,16.71,4.68,26.45c-2.8,3.35-2.83,5.97,0.13,9.17c1.07,1.15,2.41,2.1,3.74,2.96
	c2.23,1.42,2.9,2.96,1.81,5.65c-2.75,6.82-2.14,10.65,3.94,14.51c7.13,4.52,8.99,11.04,9.59,18.54c0.6,7.55,1.13,15.11,1.67,22.66
	c0.3,4.21,2.56,5.59,6.42,3.8c2.56-1.18,4.75-2.95,6.8-4.85c11.11-10.34,21.07-21.65,30.01-33.95
	c17.62-24.22,30.13-50.97,39.96-79.06c7.25-20.72,10.8-42.46,17.44-63.39c8.91-28.1,21.37-54.01,41-76.32
	c8.28-9.4,17.07-17.76,29.04-22.25c17.02-6.39,34.53-8.55,52.57-6.3C597.7,218.02,598.01,217.6,596.9,213.57z M404.55,338.14
	c-3.58,0.03-7.12,0.07-10.62-1.09c-4.91-1.63-8.16-5.75-8.44-10.88c-0.16-2.9,0.48-3.52,3.27-2.04c8.16,4.32,16.69,5.26,25.26,1.34
	c5.09-2.32,9.5-5.78,13.61-9.59c1.13-1.05,2.2-2.21,3.95-2.43C429.86,327.76,418.53,338.03,404.55,338.14z"/>
<path class="st2" d="M530.4,436.78c1.27,0.08,1.6,0.76,1.27,1.62c-0.33,0.85-0.78,1.72-1.41,2.36c-4.43,4.5-8.91,8.96-13.39,13.4
	c-0.72,0.72-1.68,1.89-2.65,0.88c-1.09-1.14,0.49-1.81,1.12-2.47c4.12-4.4,7.37-9.58,12.09-13.45
	C528.43,438.28,529.48,437.5,530.4,436.78z"/>
<path class="st2" d="M540.65,426.64c-0.09,0.25-0.11,0.61-0.28,0.72c-2.6,1.6-3.48,4.24-4.51,6.9c-0.37,0.95-1.55,2.62-3.08,1.37
	c-1.26-1.03-1.29-2.95-0.26-3.95c1.89-1.83,3.67-3.55,4.24-6.27c0.23-1.08,1.31-1.18,2.28-0.72
	C539.87,425.09,540.81,425.42,540.65,426.64z"/>
<path class="st2" d="M510.01,460.24c-1.12,1.05-2.24,2.11-3.36,3.16C506.28,460.85,507.9,460.24,510.01,460.24z"/>
</svg>
