<?xml version="1.0" encoding="utf-8"?>
<!-- Generator: Adobe Illustrator 24.0.1, SVG Export Plug-In . SVG Version: 6.00 Build 0)  -->
<svg version="1.1" id="Layer_1" xmlns="http://www.w3.org/2000/svg" xmlns:xlink="http://www.w3.org/1999/xlink" x="0px" y="0px"
	 viewBox="0 0 1024 768" style="enable-background:new 0 0 1024 768;" xml:space="preserve">
<style type="text/css">
	.st0{fill:#E4108D;}
	.st1{fill:#E3108D;}
	.st2{fill:#DF118B;}
	.st3{fill:#AB0D72;}
	.st4{fill:#E3108E;}
	.st5{fill:#B70D77;}
	.st6{fill:#B31174;}
</style>
<path class="st0" d="M479.8,125.1c6.6,0,13.1,0,19.7,0c8.5,1.2,17.1,2,25.6,4c28,6.5,52.3,19.7,71.7,40.9
	c10.6,11.5,22.3,21.4,35,30.6c13.8,10.1,26,22.1,35.4,36.5c15.9,24.3,24.9,50.7,23.5,80.1c-2.3,51.2-24.3,92.2-64.3,124
	c-11.1,8.8-22.7,16.6-34.7,24.1c-23,14.4-48,23.2-74.5,28c-1.5,0.3-3.1,0.6-5.4-0.3c6.7-2.4,12.9-4.6,19-6.9
	c12.3-4.6,24.2-9.9,35.2-17c28.1-18.1,53.1-39.5,70.3-68.8c11-18.9,17.5-39.3,20.6-60.8c1.8-12.1,2.9-24.3,1.7-36.5
	c-2.3-22.5-10.2-42.8-24-60.7c-2.4-3.1-3.7-7-7.3-9.6c-1.1,2.1-0.7,4.3-0.6,6.3c0.2,18.6-0.4,37.2-4.1,55.5
	c-1.7,8.3-3.2,16.7-5.7,24.8c-1.3,4.3-3.3,8.1-7,10.9c-3.1,3.6-6.9,6.5-9.7,10.4l0,0c-2,1.1-4.2,0.6-6.2,0.1
	c-4.4-1.1-8.7-1.1-13,0.2c-0.5,0.1-1,0.3-1.5,0.4c-1.2,0.1-2.7,0.4-3.2-0.9c-0.6-1.4,0.8-2.1,1.8-2.7c4.5-2.6,9-5.2,12.9-8.5
	c6.8-5.7,12.4-12.3,15.5-20.7c7.8-25.3,9.2-51.1,6.7-77.3c-0.8-8.2-1.6-16.4-4.4-24.3c-8.1-22.4-22.8-39.2-43.1-51.5
	c-27.8-16.9-57.8-23.9-90.2-21.4c-5.7,0.4-11.4,1.3-17.2,1.6c5-4.7,9.6-9.8,17.4-9.9C477,125.7,478.5,126,479.8,125.1z"/>
<path class="st1" d="M550.6,322.1c2,2.9,3.2,6.1,3.9,9.5c4.9,6.9,5.6,14.9,5.5,23c-0.8,7.9,2,15.5,1.8,23.5
	c-0.4,12.7-4.2,24.1-10.1,35.1c-1.9,3.5-4.4,6.6-6.4,10c-0.7,1.1-1.4,2.5-3,2.1c-1.5-0.4-1.6-2-1.9-3.3c-0.6-2.5,0.6-4.5,2.1-6.2
	c1.7-2,3-4,2.4-6.8c-0.3-1.3,0.2-2.8,0.7-3.9c2.8-5.6,1-11.8,2.6-17.6c1.3-4.5-0.1-9.7-1.4-14.4c-1.5-5.2-2.1-10.6-2.8-15.9
	c-0.6-4.2-0.1-8.8-2.3-12.8c-0.4-0.7-0.8-1.7-0.3-2.3c2.4-2.7,1.1-5-0.6-7.3c-0.5-0.8-0.8-1.7-0.7-2.7c0.4-4.8-2.2-8.6-4-12.6
	c-0.3-0.6-0.6-1.2-0.8-1.8c-1.5-4.2-1-5,3.7-5.1C544.7,313.3,547.4,318,550.6,322.1z"/>
<path class="st2" d="M539.2,313.4c-5,0.1-5.4,0.9-2.7,5.6c2.4,4.2,4.8,8.3,4.4,13.5c-0.2,2.1,1.4,3.6,2.8,5.1
	c1.1,1.1,1.7,2.7,0.2,3.3c-3.1,1.2-2.1,2.6-0.8,4.4c0.7,1,0.9,2.2,0.9,3.4c-0.1,7.3,1.8,14.5,2.5,21.7c0.2,1.9,1.1,3.7,1.7,5.6
	c1.6,5.3,0.6,10.3,0.1,15.6c-0.6,5.9-2.3,11.8-2.2,17.5c0.1,3.9-1.8,5.5-3.3,8c-0.5,0.8-1,1.5-1.5,2.4c-1.1,1.9-0.2,4.5,0.8,5.1
	c1.7,1,2-1.5,2.9-2.6c3.2-3.9,5.5-8.3,7.9-12.7c7.1-13.3,8.8-27.5,7.9-42.2c0-0.5,0.1-1.3-0.2-1.5c-3.7-3.1-1.7-6.8-1.4-10.4
	c0.3-0.3,0.6-0.3,0.9-0.2c0.2,0.3,0.4,0.6,0.5,0.9c0.8,9.6,2,19.2,1.3,29c-1,12.6-6.1,23.5-12.7,34c-10.7,16.9-24.5,31-39.4,44.2
	c-6,5.4-12.1,10.5-18.7,15.1c-2.4-1-0.9-2.4,0-3.2c4.6-4.2,8.3-9.3,12.6-13.7c12.5-12.8,24.2-26.3,34.3-41.2c1.1-1.7,2-3.4,2.7-5.3
	c0.2-0.4,0.5-0.8,0.7-1.2c3.4-10.4,5.5-20.9,4.1-31.9c-0.6-6.5-1.8-13-2.7-19.6c-0.7-4.4-0.6-4.5-5.2-3.5c-2.5,0.7-4.9,1.9-7.4,2.8
	c-6.4,2.4-14.7,1.4-18.3-5.5c-1-1.8-2.7-3.2-3.7-5.1c-0.8-1.6-0.4-2.6,1.5-2.5c1.3,0,2.8,0,3.9,0.6c3,1.6,5.9,1,8.8-0.2
	c5.2-2.2,10.4-4.3,15.5-6.6c1.7-0.5,1-1.9,1-3c-0.3-5.1-1.1-10.1-2.5-15c-0.7-3.5-3.7-5.3-5.7-7.9c-0.8-1-2.5-1.9-1.8-3.2
	c0.7-1.5,2.7-1.2,4-0.8C535,312.6,537.6,310.9,539.2,313.4z"/>
<path class="st3" d="M523.1,349.2c-4.6,3.4-9,0.2-13.5-0.3c-0.3,0-0.5,0-1.6-0.1c4.5,4.9,6.1,11.4,13.5,12.8
	c4.2,0.8,7.6-0.5,11.2-1.8c1.6-0.6,3-1.7,4.8-1.7c0.4,0.3,0.4,0.6,0.1,1c-5.5,3-11.5,4-17.6,4.3c-1.7,0.1-4-1.3-5.5-3
	c-4.5-5.1-9-10.1-10.7-17c-1.2-4.7,0.7-8.9,2.2-13.1c1.5-4.1,3.7-8,6.6-11.3c4.2-5,8.8-8.8,16.3-8c7.5,0.8,15,0.6,19.9,7.7
	c0.8,1.1,1.8,2,1.8,3.5c-2-2-4-4-5.9-6c-1.5-1.5-3.2-2.7-5.4-2.6c-3-1.7-6.3-0.4-10-1c2.5,2.9,4.7,5.4,6.9,7.8c0.9,1,1.7,2,1.4,3.5
	c-2.1,0-2.6-2.9-4.8-2.8c-4,0.2-5.8,3.5-7.9,6.1c-3.8,4.7-6.5,10-8.1,15.8c-1.2,4.4-0.6,5,3.8,5.5
	C521.5,348.4,522.4,348.4,523.1,349.2z"/>
<path class="st4" d="M561.5,329.2c10.3-6.4,21.5-10.6,33.5-12.7c0.4-0.2,0.8-0.3,1.1-0.3c1,0.1,2.3-0.6,3,0.5
	c0.7,1.3-0.3,2.3-1.2,3.1c-3.4,3-6.4,6.4-9.6,9.6c-2,2-4.2,3.7-6.6,5.1c-3.3,2-6.3,4.1-8.6,7.5c-2.1,3.1-6.2,3.4-9.5,4.6
	c-0.4,0.1-0.8,0.1-1.2,0.1c-1.8-0.4-2.5-1.8-3.1-3.3c-0.5-1.5-0.5-3.2-1.2-4.6C555.7,334.2,557.5,331.3,561.5,329.2z"/>
<path class="st5" d="M599.1,341.4c-2.4-0.1-4.7-0.3-7-0.8c-8.5-2-15.9,1.7-23.5,4.5c-1.8,0.6-3.5,1.2-5.4,1c0.9-1.2,2.3-1.1,3.5-1.6
	c2.7-1.1,5.5-1.8,7-5.1c1.3-2.9,4.7-4.2,7.4-5.8c7.2-4.1,11.4-11.2,18-16.3c-1.5-1.3-3-0.5-4.1-1c0.1-0.1,0.2-0.3,0.3-0.3
	c5.7,0.2,9-2.8,11-7.8c-1.2,5.2-3.2,9.9-6.9,13.9c-6.6,7.1-14.1,13.1-22.9,17.8c8-2.3,15.8-0.8,23.5,0.5
	C599.8,340.9,599.4,341.1,599.1,341.4z"/>
<path class="st6" d="M563.2,346.2c-3.7,2-3.2,5.5-3.3,8.8c-0.2,0-0.5-0.1-0.7-0.1c0.1-8.1-1.9-15.8-4.7-23.3
	c3.2,1.7,4.4-2.5,7.1-2.4c-0.3,1.3-1.4,1.9-2.4,2.5c-0.7,0.4-1.7,1.1-1.4,1.8c1.6,4.1,1.2,8.9,4.3,12.3
	C562.3,346.1,562.8,346.1,563.2,346.2z"/>
<path class="st5" d="M600,340.6c2.2-4.5,5.9-7.5,9.7-10.4C607.1,334.3,603.7,337.5,600,340.6z"/>
<path class="st0" d="M596.9,213.6c-2.8-10.1-7.4-19.3-13-28.1c-6.5-10.1-15.6-16.5-27-19.9c-10.3-3-20.8-4.3-33.1-4.5
	c-24.7,1.1-50.4,5.2-74.9,14.9c-33.4,13.3-60,34.7-78.8,65.5c-9.1,15-13.4,31.2-12.9,48.6c0.3,11.5,1.6,22.8,8.2,32.8
	c3.1,4.8,2.5,10.1,0.6,15.4c-2.5,6.7-7.2,11.7-12.1,16.6c-7.6,7.6-15.3,15.1-22.7,23c-7,7.4-5.9,12.1,3.2,16.6
	c3.6,1.8,7.3,3.3,10.7,5.4c11.1,6.6,12.8,16.7,4.7,26.5c-2.8,3.4-2.8,6,0.1,9.2c1.1,1.1,2.4,2.1,3.7,3c2.2,1.4,2.9,3,1.8,5.6
	c-2.8,6.8-2.1,10.6,3.9,14.5c7.1,4.5,9,11,9.6,18.5c0.6,7.5,1.1,15.1,1.7,22.7c0.3,4.2,2.6,5.6,6.4,3.8c2.6-1.2,4.8-3,6.8-4.9
	c11.1-10.3,21.1-21.6,30-34c17.6-24.2,30.1-51,40-79.1c7.3-20.7,10.8-42.5,17.4-63.4c8.9-28.1,21.4-54,41-76.3
	c8.3-9.4,17.1-17.8,29-22.3c17-6.4,34.5-8.6,52.6-6.3C597.7,218,598,217.6,596.9,213.6z M404.5,338.1c-3.6,0-7.1,0.1-10.6-1.1
	c-4.9-1.6-8.2-5.8-8.4-10.9c-0.2-2.9,0.5-3.5,3.3-2c8.2,4.3,16.7,5.3,25.3,1.3c5.1-2.3,9.5-5.8,13.6-9.6c1.1-1,2.2-2.2,4-2.4
	C429.9,327.8,418.5,338,404.5,338.1z"/>
<path class="st1" d="M530.4,436.8c1.3,0.1,1.6,0.8,1.3,1.6c-0.3,0.9-0.8,1.7-1.4,2.4c-4.4,4.5-8.9,9-13.4,13.4
	c-0.7,0.7-1.7,1.9-2.7,0.9c-1.1-1.1,0.5-1.8,1.1-2.5c4.1-4.4,7.4-9.6,12.1-13.5C528.4,438.3,529.5,437.5,530.4,436.8z"/>
<path class="st1" d="M540.7,426.6c-0.1,0.3-0.1,0.6-0.3,0.7c-2.6,1.6-3.5,4.2-4.5,6.9c-0.4,1-1.5,2.6-3.1,1.4c-1.3-1-1.3-3-0.3-4
	c1.9-1.8,3.7-3.5,4.2-6.3c0.2-1.1,1.3-1.2,2.3-0.7C539.9,425.1,540.8,425.4,540.7,426.6z"/>
<path class="st1" d="M510,460.2c-1.1,1-2.2,2.1-3.4,3.2C506.3,460.9,507.9,460.2,510,460.2z"/>
</svg>
